<?xml version="1.0" encoding="utf-8"?>
<!-- Generator: Adobe Illustrator 19.2.1, SVG Export Plug-In . SVG Version: 6.00 Build 0)  -->
<svg version="1.1" id="Layer_1" xmlns="http://www.w3.org/2000/svg" xmlns:xlink="http://www.w3.org/1999/xlink" x="0px" y="0px"
	 viewBox="0 0 200 50" style="enable-background:new 0 0 200 50;" xml:space="preserve">
<style type="text/css">
	.st0{fill:#111111;}
</style>
<g>
	<path d="M56.7,29.6c0,1.7,1,3,3.1,3c1,0,1.5-0.4,1.8-0.4c0.2,0,0.4,0.2,0.4,0.4c0,0.7-2.1,2.9-5.7,2.9c-2.8,0-5.1-1.9-5.1-4.6
		c0-4,3.1-7.2,3.1-8.5c0-0.3-0.2-0.5-0.5-0.5c-0.5,0-1.6,0.4-2.6,2c-1.2,1.8-2.4,4.9-2.4,6.3c0,0.5-0.1,0.8-0.6,0.8
		c-1.6,0-3.6-0.4-3.6-1.6c0-1.9,2.3-5.9,2.3-7c0-0.3-0.2-0.5-0.6-0.5c-0.5,0-1,0.2-2,1.8c-1.2,1.9-2.8,5.1-2.8,6.5
		c0,0.5-0.1,0.8-0.6,0.8c-1.6,0-3.8-0.4-3.8-1.6c0-2.4,3.1-7.3,3.1-10c0-0.3,0.3-0.6,0.9-0.6c3,0,3.1,2.2,3.3,2.2
		c0.2,0,1.9-2.2,4.5-2.2c2.7,0,3.2,2.2,3.3,2.2c0.1,0,2.2-2.2,4.8-2.2c1.7,0,2.6,0.9,2.6,2.2C59.4,23.4,56.7,26.4,56.7,29.6z"/>
	<path d="M65.2,27.9c0.4,0,1.7-0.5,2.4-1.5c1.8-2.8,2.2-4.9,2.2-7c0-0.3,0.2-0.6,0.6-0.6c2.5,0,3.9,1.4,3.9,2.5
		c0,0.7-1.4,3.8-2.4,7.1C70,33.9,68.3,42,62.1,42c-4.2,0-6.3-3.4-6.3-4.6c0-0.3,0.2-0.5,0.5-0.5c0.5,0,0.9,0.8,2.9,0.8
		c5,0,6.9-5.3,7.9-8.3c0-0.1,0-0.2,0-0.2c0,0,0-0.1-0.1-0.1c-0.4,0-2,2-5.2,2c-1.6,0-2.7-0.7-2.7-2.4c0-2.5,3-6.5,3-9.2
		c0-0.3,0.3-0.6,0.9-0.6c1.7,0,3.3,1.5,3.3,2.9c0,1.9-2,3.9-2,5.6C64.6,27.7,64.8,27.9,65.2,27.9z"/>
	<path d="M82,29.4c0-0.1-0.1-0.1-0.1-0.1c-0.2,0-1.9,1.7-4.8,1.7c-1.7,0-2.8-1.1-2.8-3c0-4.4,4.5-9.2,10-9.2c2.9,0,5,1.7,5,2.5
		s-1.6,2.4-2.6,6.6C85.3,33.6,83.4,42,76.9,42c-4.2,0-6.3-3.4-6.3-4.5c0-0.3,0.2-0.5,0.5-0.5c0.5,0,0.9,0.8,2.9,0.8c5,0,7-5.1,7.9-8
		C82,29.6,82,29.5,82,29.4z M79.2,27.2c0,0.3,0.2,0.6,0.6,0.6c1.8,0,4.6-5.5,4.6-6.2c0-0.3-0.1-0.4-0.4-0.4
		C81.9,21.1,79.2,25,79.2,27.2z"/>
	<path d="M94,27.3c0,0.4,0.2,0.6,0.6,0.6c2,0,4.3-5.3,4.3-8.5c0-0.3,0.2-0.6,0.7-0.6c2,0,3.9,1.4,3.9,2.5c0,1-2.5,4.7-2.5,7.7
		c0,1.2,0.2,1.2,0.2,1.7c0,0.2-0.2,0.4-0.5,0.4c-2.7,0-3.8-1.9-4-1.9c-0.4,0-2.2,1.9-5,1.9c-1.6,0-2.8-0.9-2.8-2.7
		c0-2.4,2.7-6.2,2.7-9c0-0.3,0.3-0.6,1-0.6c1.7,0,3.3,1.5,3.3,2.9C95.8,23.5,94,25.6,94,27.3z"/>
	<path d="M107.2,30.2c0,0.5-0.1,0.8-0.6,0.8c-1.6,0-3.8-0.4-3.8-1.6c0-2.4,3.4-7.3,3.4-10c0-0.3,0.3-0.6,0.9-0.6
		c2,0,3.3,1.5,3.3,2.5C110.3,23.3,107.2,27.7,107.2,30.2z M111.1,12.2c1.2,0,2.1,0.8,2.1,2c0,1.7-1.3,3.3-2.9,3.3
		c-1.2,0-2.2-0.8-2.2-2C108.1,13.8,109.4,12.2,111.1,12.2z"/>
	<path d="M111.7,21.7c0-0.4,0.6-1.7,1-2.1c0.3-0.3,0.7-0.3,1.2-0.3c0.9-2.2,1.7-4.1,1.7-4.9c0-0.3,0.3-0.5,0.9-0.5
		c1.4,0,3.3,1.5,3.3,2.5c0,0.5-0.5,1.5-1.1,3c1.4,0,1.7-0.1,2-0.1c0.2,0,0.3,0.1,0.3,0.4c0,1.2-0.8,2.7-3.5,2.7
		c-0.9,1.8-3,6.8-3,8.1c0,0.5-0.1,0.8-0.7,0.8c-1.6,0-3.7-0.4-3.7-1.6c0-1.5,2.6-6.2,2.6-7.3C112.4,22.1,111.7,22.1,111.7,21.7z"/>
	<path d="M130.7,31c-2.7,0-3.8-1.9-4.1-1.9c-0.4,0-2.1,1.9-5.2,1.9c-1.7,0-2.8-1.1-2.8-3c0-4.4,4.5-9.2,10-9.2c2.9,0,5,1.7,5,2.5
		c0,0.6-2.6,3.6-2.6,7.8c0,1,0.2,1.1,0.2,1.5C131.2,30.9,131.1,31,130.7,31z M123.6,27.2c0,0.3,0.2,0.6,0.6,0.6
		c1.8,0,4.6-5.5,4.6-6.2c0-0.3-0.1-0.4-0.4-0.4C126.3,21.1,123.6,25,123.6,27.2z"/>
	<path d="M144,18.8c1,0,1.7,0.6,1.7,1.7c0,1.8-2.2,4.2-3.2,4.2c-0.3,0-0.5-0.1-0.5-0.4c-0.2-0.5-0.1-1.8-0.9-1.8
		c-0.4,0-1,0.4-1.6,1.3c-1.1,1.8-2.4,5.3-2.4,6.3c0,0.5-0.1,0.8-0.6,0.8c-1.6,0-3.8-0.4-3.8-1.6c0-2.4,3.1-7.3,3.1-10
		c0-0.3,0.3-0.6,0.9-0.6c3,0,3,2.2,3.1,2.2C140,21,141.7,18.8,144,18.8z"/>
	<path d="M152.1,29.4c0-0.1-0.1-0.1-0.1-0.1c-0.2,0-1.9,1.7-4.8,1.7c-1.7,0-2.8-1.1-2.8-3c0-4.4,4.5-9.2,10-9.2c2.9,0,5,1.7,5,2.5
		s-1.6,2.4-2.6,6.6c-1.3,5.7-3.1,14.1-9.7,14.1c-4.2,0-6.3-3.4-6.3-4.5c0-0.3,0.2-0.5,0.5-0.5c0.5,0,0.9,0.8,2.9,0.8
		c5,0,7-5.1,7.9-8C152.1,29.6,152.1,29.5,152.1,29.4z M149.3,27.2c0,0.3,0.2,0.6,0.6,0.6c1.8,0,4.6-5.5,4.6-6.2
		c0-0.3-0.1-0.4-0.4-0.4C152,21.1,149.3,25,149.3,27.2z"/>
	<path d="M169.9,26.4c0.3,0,0.5,0.3,0.5,0.6c0,0.6-1.9,4.1-7.2,4.1c-2.3,0-4.2-1.4-4.2-3.9c0-4.2,4.6-8.4,9.2-8.4
		c2.6,0,3.6,1.4,3.6,2.7c0,2.6-4.3,4.8-7.3,5.3c0.2,0.7,0.7,1.1,1.7,1.1C168.6,28,169.4,26.4,169.9,26.4z M164.6,24.9
		c2.2-0.6,4-2.2,4-3.2c0-0.4-0.2-0.6-0.6-0.6C166.9,21.1,165.1,22.9,164.6,24.9z"/>
	<path d="M183.9,31c-2.7,0-3.8-1.9-4.1-1.9c-0.4,0-2.1,1.9-5.2,1.9c-1.7,0-2.8-1.1-2.8-3c0-4.4,4.5-9.2,10-9.2c2.9,0,5,1.7,5,2.5
		c0,0.6-2.6,3.6-2.6,7.8c0,1,0.2,1.1,0.2,1.5C184.4,30.9,184.3,31,183.9,31z M176.8,27.2c0,0.3,0.2,0.6,0.6,0.6
		c1.8,0,4.6-5.5,4.6-6.2c0-0.3-0.1-0.4-0.4-0.4C179.5,21.1,176.8,25,176.8,27.2z"/>
	<path d="M197.2,18.8c1,0,1.7,0.6,1.7,1.7c0,1.8-2.2,4.2-3.2,4.2c-0.3,0-0.5-0.1-0.5-0.4c-0.2-0.5-0.1-1.8-0.9-1.8
		c-0.4,0-1,0.4-1.6,1.3c-1.1,1.8-2.4,5.3-2.4,6.3c0,0.5-0.1,0.8-0.6,0.8c-1.6,0-3.8-0.4-3.8-1.6c0-2.4,3.1-7.3,3.1-10
		c0-0.3,0.3-0.6,0.9-0.6c3,0,3,2.2,3.1,2.2C193.2,21,194.9,18.8,197.2,18.8z"/>
</g>
<path class="st0" d="M4.5,9.4c0,0,4-3.5,13.8-2c9.3,1.4,12.6,4.7,13.1,5.3c0.1,0.1,0.1,0.1,0.2,0.2c0.8,0.9,5.5,7.2-5.8,20.4
	c-10.6,12.4-15.6,6.4-16.3,5.4c-0.1-0.1-0.2-0.2-0.3-0.4c-0.8-1.1-4.6-6.4-6.6-14.3C0.6,15.4,2,11.5,4.5,9.4z"/>
</svg>
